<svg width="30" height="31" viewBox="0 0 30 31" fill="none" xmlns="http://www.w3.org/2000/svg">
<path d="M27.7487 12.1667C27.9348 12.1668 28.119 12.1302 28.2909 12.059C28.4628 11.9878 28.619 11.8835 28.7505 11.7519C28.8821 11.6203 28.9864 11.4641 29.0576 11.2922C29.1288 11.1203 29.1654 10.9361 29.1654 10.75V6.50005C29.1655 6.2028 29.072 5.91306 28.8982 5.67193C28.7243 5.4308 28.479 5.25054 28.1969 5.15671L15.4469 0.906708C15.156 0.809865 14.8414 0.809865 14.5505 0.906708L1.80045 5.15671C1.5184 5.25054 1.27305 5.4308 1.09922 5.67193C0.925394 5.91306 0.831909 6.2028 0.832031 6.50005V10.75C0.831983 10.9361 0.868593 11.1203 0.93977 11.2922C1.01095 11.4641 1.1153 11.6203 1.24686 11.7519C1.37841 11.8835 1.53461 11.9878 1.70651 12.059C1.87841 12.1302 2.06265 12.1668 2.2487 12.1667H3.66536V22.3444C2.83908 22.6355 2.12313 23.1752 1.61583 23.8894C1.10852 24.6036 0.834726 25.4573 0.832031 26.3334V29.1667C0.831983 29.3528 0.868593 29.537 0.93977 29.7089C1.01095 29.8808 1.1153 30.037 1.24686 30.1686C1.37841 30.3001 1.53461 30.4045 1.70651 30.4756C1.87841 30.5468 2.06265 30.5834 2.2487 30.5834H27.7487C27.9348 30.5834 28.119 30.5468 28.2909 30.4756C28.4628 30.4045 28.619 30.3001 28.7505 30.1686C28.8821 30.037 28.9864 29.8808 29.0576 29.7089C29.1288 29.537 29.1654 29.3528 29.1654 29.1667V26.3334C29.1627 25.4573 28.8889 24.6036 28.3816 23.8894C27.8743 23.1752 27.1583 22.6355 26.332 22.3444V12.1667H27.7487ZM26.332 27.7501H3.66536V26.3334C3.66574 25.9578 3.81512 25.5977 4.08071 25.3321C4.34631 25.0665 4.70642 24.9171 5.08203 24.9167H24.9154C25.291 24.9171 25.6511 25.0665 25.9167 25.3321C26.1823 25.5977 26.3317 25.9578 26.332 26.3334V27.7501ZM6.4987 22.0834V12.1667H9.33203V22.0834H6.4987ZM12.1654 22.0834V12.1667H17.832V22.0834H12.1654ZM20.6654 22.0834V12.1667H23.4987V22.0834H20.6654ZM3.66536 9.33338V7.52104L14.9987 3.74279L26.332 7.52104V9.33338H3.66536Z" fill="white"/>
</svg>
