<svg width="59" height="97" viewBox="0 0 59 97" fill="none" xmlns="http://www.w3.org/2000/svg">
<path d="M4.43359 81.4037V42.0055L30.0146 56.7797V96.1787L4.43359 81.4037Z" fill="#E1E1E1"/>
<path d="M30.0078 96.1787V56.7797L55.5888 42.0055V81.4037L30.0078 96.1787Z" fill="#D9D7D7"/>
<path d="M0.976562 40.1003V34.4911L29.8561 51.1699V56.7805L0.976562 40.1003Z" fill="#E7E7E7"/>
<path d="M30.0078 56.7805V51.1699L58.8874 34.4911V40.1003L30.0078 56.7805Z" fill="#E4E4E4"/>
<path d="M29.8561 17.8149L0.976562 34.4946L29.8561 51.1736L58.7356 34.4946L29.8561 17.8149Z" fill="#F0F0F0"/>
<path d="M12.1633 85.9501L8.23438 83.6802V49.0714L12.1633 51.341V85.9501Z" fill="#D5D5D5"/>
<path d="M18.7297 89.8398L16.7638 88.7033L14.8008 87.5701V52.9609L18.7297 55.2309V89.84" fill="#D5D5D5"/>
<path d="M25.6399 93.7294L21.7109 91.4594V56.8503L25.6399 59.1203V93.7294Z" fill="#D5D5D5"/>
<path d="M47.6328 85.9501V51.341L51.5646 49.0714V83.6802L49.748 84.729L47.6328 85.9501Z" fill="#C8C8C8"/>
<path d="M40.7217 89.8398V55.2307L44.6506 52.9607V87.5699L43.8958 88.0058L40.7217 89.8395" fill="#C8C8C8"/>
<path d="M34.1553 93.7289V59.1198L38.0842 56.8499V91.4589L34.1553 93.7289Z" fill="#C8C8C8"/>
<path d="M4.43359 43.2767V42.0055L30.0146 56.7797V58.052L4.43359 43.2767Z" fill="#DADADA"/>
<path d="M27.7679 11.3394C27.7679 10.4918 27.9097 9.76847 28.1621 9.1779C26.1942 8.95398 24.8077 10.4206 24.8077 13.1076C24.8077 16.6402 27.2065 20.9371 30.1668 22.7041C32.4182 24.0465 34.3407 23.5374 35.1346 21.6669C34.5136 21.5957 33.8388 21.36 33.1271 20.9365C30.1668 19.1704 27.7679 14.8737 27.7679 11.3394Z" fill="#4900D0"/>
<path fill-rule="evenodd" clip-rule="evenodd" d="M38.1792 29.9054C40.9054 28.247 41.8537 24.3106 41.0298 19.7279C41.0298 19.7212 41.027 19.7143 41.027 19.7079C41.0243 19.7019 41.0243 19.6944 41.0243 19.6883C40.5681 17.1855 39.5838 14.4907 38.0741 11.8706C38.0631 11.8531 38.052 11.8363 38.0437 11.8188C38.0326 11.8009 38.0216 11.7832 38.0133 11.7654C34.5599 5.84371 29.4282 2.09678 25.3085 2.08212H25.2836C24.2634 2.08212 23.3067 2.31141 22.4496 2.79434C22.4468 2.796 22.444 2.79794 22.4413 2.79987C22.4275 2.80679 22.4164 2.81369 22.4053 2.8206L23.2597 2.32717L25.2919 1.15306C26.1573 0.652161 27.1333 0.414307 28.1702 0.414307C32.3203 0.414307 37.499 4.20881 40.9607 10.2022C43.6122 14.8005 44.6408 19.6263 44.038 23.2474C43.8998 24.0811 43.6758 24.8514 43.3634 25.5398C42.8242 26.7363 42.0224 27.6872 40.9607 28.3004L38.1792 29.9054Z" fill="#6918FF"/>
<path d="M30.3671 22.4618C27.4697 20.7855 25.1219 16.7087 25.1219 13.3577C25.1219 10.0045 27.4697 8.64647 30.3671 10.3217C33.2646 11.9975 35.6125 16.074 35.6125 19.4272C35.6125 22.778 33.2646 24.1371 30.3671 22.4618ZM38.2324 11.8437C33.889 4.30921 26.8481 0.232468 22.5048 2.74602C18.1587 5.25651 18.1587 13.403 22.5048 20.9392L30.3671 34.5844L38.2324 30.0367C42.5729 27.5256 42.5729 19.3802 38.2324 11.8437Z" fill="#4339F2"/>
</svg>
