<svg width="32" height="30" viewBox="0 0 32 30" fill="none" xmlns="http://www.w3.org/2000/svg">
<path d="M7.5013 13.5833C7.22111 13.5833 6.94721 13.6664 6.71424 13.822C6.48128 13.9777 6.2997 14.1989 6.19247 14.4578C6.08525 14.7167 6.05719 15.0015 6.11186 15.2763C6.16652 15.5511 6.30144 15.8036 6.49957 16.0017C6.69769 16.1998 6.95012 16.3347 7.22492 16.3894C7.49973 16.4441 7.78457 16.416 8.04344 16.3088C8.3023 16.2016 8.52355 16.02 8.67922 15.787C8.83488 15.554 8.91797 15.2801 8.91797 14.9999C8.91797 14.6242 8.76871 14.2639 8.50304 13.9982C8.23736 13.7325 7.87703 13.5833 7.5013 13.5833ZM15.803 11.3874L5.6738 1.24411C5.54171 1.11203 5.3849 1.00725 5.21232 0.935763C5.03974 0.864277 4.85477 0.827484 4.66797 0.827484C4.48117 0.827484 4.2962 0.864277 4.12362 0.935763C3.95103 1.00725 3.79422 1.11203 3.66214 1.24411C3.39537 1.51088 3.24551 1.87269 3.24551 2.24995C3.24551 2.62721 3.39537 2.98902 3.66214 3.25578L5.5038 5.08328H4.66797C3.5408 5.08328 2.45979 5.53105 1.66277 6.32808C0.865735 7.12511 0.417969 8.20611 0.417969 9.33328V20.6666C0.417969 21.7938 0.865735 22.8748 1.66277 23.6718C2.45979 24.4688 3.5408 24.9166 4.66797 24.9166H25.3371L29.1621 28.7558C29.2938 28.8886 29.4505 28.994 29.6232 29.0659C29.7958 29.1378 29.981 29.1748 30.168 29.1748C30.355 29.1748 30.5402 29.1378 30.7128 29.0659C30.8854 28.994 31.0421 28.8886 31.1738 28.7558C31.3066 28.6241 31.412 28.4674 31.4839 28.2948C31.5558 28.1221 31.5929 27.937 31.5929 27.7499C31.5929 27.5629 31.5558 27.3778 31.4839 27.2051C31.412 27.0325 31.3066 26.8758 31.1738 26.7441L15.803 11.3874ZM14.7546 14.3483L16.653 16.2466C16.4526 16.3548 16.229 16.4132 16.0013 16.4166C15.6256 16.4166 15.2652 16.2674 14.9996 16.0017C14.7339 15.736 14.5846 15.3757 14.5846 14.9999C14.5881 14.7722 14.6464 14.5487 14.7546 14.3483ZM4.66797 22.0833C4.29225 22.0833 3.93191 21.934 3.66623 21.6683C3.40056 21.4027 3.2513 21.0423 3.2513 20.6666V9.33328C3.2513 8.95756 3.40056 8.59722 3.66623 8.33155C3.93191 8.06587 4.29225 7.91661 4.66797 7.91661H8.33714L12.7288 12.3083C12.1014 13.0654 11.7559 14.0167 11.7513 14.9999C11.7513 16.1271 12.1991 17.2081 12.9961 18.0051C13.7931 18.8022 14.8741 19.2499 16.0013 19.2499C16.9846 19.2453 17.9358 18.8998 18.693 18.2724L22.5038 22.0833H4.66797ZM27.3346 5.08328H16.9363C16.5606 5.08328 16.2002 5.23254 15.9346 5.49821C15.6689 5.76389 15.5196 6.12422 15.5196 6.49995C15.5196 6.87567 15.6689 7.236 15.9346 7.50168C16.2002 7.76736 16.5606 7.91661 16.9363 7.91661H27.3346C27.7104 7.91661 28.0707 8.06587 28.3364 8.33155C28.602 8.59722 28.7513 8.95756 28.7513 9.33328V19.7316C28.7513 20.1073 28.9006 20.4677 29.1662 20.7333C29.4319 20.999 29.7922 21.1483 30.168 21.1483C30.5437 21.1483 30.904 20.999 31.1697 20.7333C31.4354 20.4677 31.5846 20.1073 31.5846 19.7316V9.33328C31.5846 8.20611 31.1369 7.12511 30.3398 6.32808C29.5428 5.53105 28.4618 5.08328 27.3346 5.08328ZM25.918 14.9999C25.918 14.7198 25.8349 14.4459 25.6792 14.2129C25.5236 13.9799 25.3023 13.7983 25.0434 13.6911C24.7846 13.5839 24.4997 13.5558 24.2249 13.6105C23.9501 13.6652 23.6977 13.8001 23.4996 13.9982C23.3014 14.1963 23.1665 14.4488 23.1119 14.7236C23.0572 14.9984 23.0852 15.2832 23.1925 15.5421C23.2997 15.8009 23.4813 16.0222 23.7142 16.1779C23.9472 16.3335 24.2211 16.4166 24.5013 16.4166C24.877 16.4166 25.2374 16.2674 25.503 16.0017C25.7687 15.736 25.918 15.3757 25.918 14.9999Z" fill="white"/>
</svg>
