<svg width="40" height="40" viewBox="0 0 40 40" fill="none" xmlns="http://www.w3.org/2000/svg">
<path d="M20.003 33.3126C27.306 33.3126 33.2263 27.3923 33.2263 20.0893C33.2263 12.7863 27.306 6.86597 20.003 6.86597C12.6999 6.86597 6.77963 12.7863 6.77963 20.0893C6.77963 27.3923 12.6999 33.3126 20.003 33.3126Z" fill="#4339F2"/>
<path d="M17.5789 26.1501C17.1505 26.1501 17.2233 25.9884 17.0756 25.5805L15.8158 21.4344L25.5129 15.6816" fill="#C8DAEA"/>
<path d="M17.5785 26.1497C17.9091 26.1497 18.0551 25.9986 18.2396 25.8192L20.0028 24.1048L17.8035 22.7786" fill="#A9C9DD"/>
<path d="M17.8032 22.7794L23.1322 26.7165C23.7403 27.0521 24.1792 26.8783 24.3307 26.1519L26.4999 15.93C26.7219 15.0396 26.1604 14.6357 25.5787 14.8999L12.8413 19.8113C11.9719 20.1601 11.9769 20.6451 12.6828 20.8613L15.9515 21.8815L23.5189 17.1073C23.8762 16.8907 24.204 17.0071 23.9349 17.246" fill="white"/>
</svg>
