<svg width="26" height="26" viewBox="0 0 26 26" fill="none" xmlns="http://www.w3.org/2000/svg">
<path fill-rule="evenodd" clip-rule="evenodd" d="M2.05797 19.3436C0.930277 17.4444 0.340799 15.292 0.340799 13.0636C0.340799 6.15046 6.05617 0.528809 13.053 0.528809C16.4617 0.528809 19.6398 1.84559 22.0489 4.20061C24.4325 6.58095 25.7652 9.72097 25.7652 13.0889C25.7652 20.002 20.0498 25.6237 13.053 25.6237C10.9258 25.6237 8.82415 25.1172 6.97883 24.1043L0.238281 25.8516L2.05797 19.3436ZM9.02116 6.93394C9.2555 6.94349 9.51477 6.95443 9.7611 7.49977C9.92944 7.87258 10.2127 8.56759 10.4384 9.12148C10.6048 9.52963 10.7399 9.86115 10.7747 9.93063C10.857 10.0944 10.9117 10.2856 10.8021 10.5043C10.7857 10.537 10.7705 10.5678 10.756 10.5973C10.6737 10.7648 10.6131 10.8878 10.4736 11.0504C10.419 11.114 10.3625 11.1825 10.3059 11.2509C10.1924 11.3884 10.0789 11.526 9.98036 11.6239C9.81542 11.7872 9.64411 11.9646 9.83593 12.2921C10.0278 12.62 10.6877 13.6919 11.6652 14.5599C12.7153 15.4924 13.6275 15.8868 14.0908 16.0871C14.1818 16.1264 14.2554 16.1583 14.3094 16.1852C14.6383 16.349 14.8301 16.3217 15.0219 16.1028C15.2138 15.8845 15.8435 15.147 16.0628 14.8195C16.282 14.4916 16.5013 14.5463 16.8027 14.6554C17.1041 14.7646 18.7207 15.5569 19.0495 15.7207C19.1137 15.7526 19.1736 15.7814 19.2292 15.8082C19.4587 15.9185 19.6136 15.993 19.6798 16.1028C19.762 16.2398 19.762 16.8952 19.488 17.6598C19.214 18.4245 17.8715 19.162 17.2686 19.2166C17.2106 19.2219 17.1529 19.2286 17.0936 19.2356C16.5364 19.3008 15.8332 19.3832 13.3228 18.3973C10.234 17.1841 8.19729 14.1776 7.77652 13.5565C7.74201 13.5056 7.71838 13.4707 7.70591 13.4541L7.70225 13.4492C7.52496 13.2133 6.36328 11.667 6.36328 10.0671C6.36328 8.55897 7.10761 7.76842 7.45008 7.40469C7.47348 7.37983 7.49501 7.35697 7.51429 7.33601C7.81551 7.00828 8.17182 6.92628 8.39102 6.92628L8.42706 6.92627C8.63407 6.92625 8.84005 6.92622 9.02116 6.93394Z" fill="#4339F2"/>
</svg>
