<svg width="24" height="24" viewBox="0 0 24 24" fill="none" xmlns="http://www.w3.org/2000/svg">
<path d="M11.9997 23.7545C18.443 23.7545 23.6663 18.5311 23.6663 12.0878C23.6663 5.64449 18.443 0.421143 11.9997 0.421143C5.55635 0.421143 0.333008 5.64449 0.333008 12.0878C0.333008 18.5311 5.55635 23.7545 11.9997 23.7545Z" fill="#4339F2"/>
<path d="M16.2175 13.9896L14.7359 13.8204C14.38 13.7796 14.03 13.9021 13.7792 14.1529L12.7059 15.2262C11.055 14.3863 9.70169 13.0388 8.86169 11.3821L9.94086 10.3029C10.1917 10.0521 10.3142 9.70208 10.2734 9.34625L10.1042 7.87625C10.0342 7.28708 9.53836 6.84375 8.94336 6.84375H7.93419C7.27502 6.84375 6.72669 7.39208 6.76752 8.05125C7.07669 13.0329 11.0609 17.0113 16.0367 17.3204C16.6959 17.3612 17.2442 16.8129 17.2442 16.1538V15.1446C17.25 14.5554 16.8067 14.0596 16.2175 13.9896Z" fill="white"/>
</svg>
