<svg width="25" height="25" viewBox="0 0 25 25" fill="none" xmlns="http://www.w3.org/2000/svg">
<rect width="25" height="25" rx="8" fill="#4339F2"/>
<path d="M12.5029 16.6659C10.2017 16.6659 8.33623 14.8004 8.33623 12.4993C8.33623 10.198 10.2017 8.33257 12.5029 8.33257C14.8041 8.33257 16.6696 10.198 16.6696 12.4993C16.6696 14.8004 14.8041 16.6659 12.5029 16.6659ZM12.5029 6.08032C8.95781 6.08032 6.08398 8.95415 6.08398 12.4993C6.08398 16.0443 8.95781 18.9181 12.5029 18.9181C16.048 18.9181 18.9218 16.0443 18.9218 12.4993C18.9218 8.95415 16.048 6.08032 12.5029 6.08032Z" fill="white"/>
<path d="M20.6758 5.82249C20.6758 6.65092 20.0042 7.32246 19.1758 7.32246C18.3474 7.32246 17.6758 6.65092 17.6758 5.82249C17.6758 4.99405 18.3474 4.32251 19.1758 4.32251C20.0042 4.32251 20.6758 4.99405 20.6758 5.82249Z" fill="white"/>
</svg>
