<svg width="30" height="30" viewBox="0 0 30 30" fill="none" xmlns="http://www.w3.org/2000/svg">
<path d="M14.8581 0.833496C12.0562 0.833496 9.3172 1.66436 6.9875 3.22101C4.6578 4.77766 2.84203 6.99019 1.76979 9.57881C0.697544 12.1674 0.416997 15.0159 0.963621 17.7639C1.51025 20.512 2.85949 23.0363 4.84073 25.0175C6.82198 26.9988 9.34624 28.348 12.0943 28.8946C14.8424 29.4412 17.6908 29.1607 20.2794 28.0885C22.868 27.0162 25.0806 25.2004 26.6372 22.8707C28.1939 20.541 29.0247 17.8021 29.0247 15.0002C29.0247 13.1398 28.6583 11.2976 27.9464 9.57881C27.2344 7.86003 26.1909 6.29831 24.8754 4.98282C23.5599 3.66732 21.9982 2.62381 20.2794 1.91187C18.5606 1.19993 16.7185 0.833496 14.8581 0.833496ZM14.8581 26.3335C12.6166 26.3335 10.4254 25.6688 8.56162 24.4235C6.69786 23.1782 5.24524 21.4081 4.38745 19.3372C3.52965 17.2663 3.30521 14.9876 3.74251 12.7891C4.17981 10.5907 5.25921 8.57128 6.8442 6.98629C8.4292 5.40129 10.4486 4.3219 12.6471 3.8846C14.8455 3.4473 17.1243 3.67174 19.1952 4.52953C21.2661 5.38732 23.0361 6.83994 24.2814 8.7037C25.5267 10.5675 26.1914 12.7586 26.1914 15.0002C26.1914 18.0059 24.9974 20.8886 22.872 23.014C20.7465 25.1395 17.8639 26.3335 14.8581 26.3335ZM12.0247 10.7502C12.0247 10.47 11.9417 10.1961 11.786 9.9631C11.6303 9.73013 11.4091 9.54856 11.1502 9.44133C10.8914 9.33411 10.6065 9.30605 10.3317 9.36072C10.0569 9.41538 9.80447 9.5503 9.60635 9.74843C9.40822 9.94655 9.2733 10.199 9.21863 10.4738C9.16397 10.7486 9.19203 11.0334 9.29925 11.2923C9.40647 11.5512 9.58805 11.7724 9.82102 11.9281C10.054 12.0837 10.3279 12.1668 10.6081 12.1668C10.9838 12.1668 11.3441 12.0176 11.6098 11.7519C11.8755 11.4862 12.0247 11.1259 12.0247 10.7502ZM19.1081 9.3335C18.8279 9.3335 18.554 9.41658 18.321 9.57225C18.0881 9.72791 17.9065 9.94917 17.7993 10.208C17.692 10.4669 17.664 10.7517 17.7186 11.0265C17.7733 11.3013 17.9082 11.5538 18.1063 11.7519C18.3045 11.95 18.5569 12.0849 18.8317 12.1396C19.1065 12.1943 19.3914 12.1662 19.6502 12.059C19.9091 11.9518 20.1303 11.7702 20.286 11.5372C20.4417 11.3043 20.5247 11.0304 20.5247 10.7502C20.5247 10.3744 20.3755 10.0141 20.1098 9.74843C19.8441 9.48275 19.4838 9.3335 19.1081 9.3335ZM14.8581 13.5835C13.5916 13.6351 12.397 14.1853 11.5345 15.1141C10.672 16.0429 10.2117 17.275 10.2539 18.5418C10.2117 19.8086 10.672 21.0407 11.5345 21.9695C12.397 22.8983 13.5916 23.4485 14.8581 23.5002C16.1245 23.4485 17.3192 22.8983 18.1816 21.9695C19.0441 21.0407 19.5044 19.8086 19.4622 18.5418C19.5044 17.275 19.0441 16.0429 18.1816 15.1141C17.3192 14.1853 16.1245 13.6351 14.8581 13.5835ZM14.8581 20.6668C14.3428 20.6165 13.8681 20.3653 13.5367 19.9676C13.2053 19.5699 13.0438 19.0577 13.0872 18.5418C13.0438 18.026 13.2053 17.5137 13.5367 17.116C13.8681 16.7183 14.3428 16.4671 14.8581 16.4168C15.3733 16.4671 15.848 16.7183 16.1794 17.116C16.5109 17.5137 16.6723 18.026 16.6289 18.5418C16.6723 19.0577 16.5109 19.5699 16.1794 19.9676C15.848 20.3653 15.3733 20.6165 14.8581 20.6668Z" fill="white"/>
</svg>
